<svg xmlns="http://www.w3.org/2000/svg" xmlns:xlink="http://www.w3.org/1999/xlink" width="264" zoomAndPan="magnify" viewBox="0 0 198.75 198.749995" height="264" preserveAspectRatio="xMidYMid meet" version="1.0"><defs><g/><clipPath id="d960ad473b"><path d="M 0 0 L 198.5 0 L 198.5 198.5 L 0 198.5 Z M 0 0 " clip-rule="nonzero"/></clipPath><clipPath id="26d98dd3fe"><path d="M 0 0 L 198.425781 0 L 198.425781 198.425781 L 0 198.425781 Z M 0 0 " clip-rule="nonzero"/></clipPath><clipPath id="fe164ed271"><path d="M 99.210938 0 C 44.417969 0 0 44.417969 0 99.210938 C 0 154.007812 44.417969 198.425781 99.210938 198.425781 C 154.007812 198.425781 198.425781 154.007812 198.425781 99.210938 C 198.425781 44.417969 154.007812 0 99.210938 0 Z M 99.210938 0 " clip-rule="nonzero"/></clipPath><clipPath id="6d67e213ec"><path d="M 140 40.5 L 153.296875 40.5 L 153.296875 54 L 140 54 Z M 140 40.5 " clip-rule="nonzero"/></clipPath><clipPath id="b66a115484"><path d="M 45.296875 76 L 67 76 L 67 98 L 45.296875 98 Z M 45.296875 76 " clip-rule="nonzero"/></clipPath></defs><g clip-path="url(#d960ad473b)"><path fill="#ffffff" d="M 0 0 L 198.75 0 L 198.75 198.75 L 0 198.75 Z M 0 0 " fill-opacity="1" fill-rule="nonzero"/><path fill="#a5e2ff" d="M 0 0 L 198.75 0 L 198.75 198.75 L 0 198.75 Z M 0 0 " fill-opacity="1" fill-rule="nonzero"/></g><g clip-path="url(#26d98dd3fe)"><g clip-path="url(#fe164ed271)"><path fill="#a5e2ff" d="M 0 0 L 198.425781 0 L 198.425781 198.425781 L 0 198.425781 Z M 0 0 " fill-opacity="1" fill-rule="nonzero"/></g></g><g fill="#ffffff" fill-opacity="1"><g transform="translate(35.22799, 156.496912)"><g><path d="M 5.28125 -8.015625 L 4.3125 -6.171875 L 4.3125 0 L 1.140625 0 L 1.140625 -20.09375 L 4.3125 -20.09375 L 4.3125 -11.34375 L 8.5 -20.09375 L 11.59375 -20.09375 L 7.203125 -11.140625 L 11.59375 0 L 8.359375 0 Z M 5.28125 -8.015625 "/></g></g></g><g fill="#ffffff" fill-opacity="1"><g transform="translate(47.110096, 156.496912)"><g><path d="M 1.140625 -20.09375 L 4.3125 -20.09375 L 4.3125 -2.875 L 9.5 -2.875 L 9.5 0 L 1.140625 0 Z M 1.140625 -20.09375 "/></g></g></g><g fill="#ffffff" fill-opacity="1"><g transform="translate(56.897044, 156.496912)"><g><path d="M 4.3125 -11.625 L 8.640625 -11.625 L 8.640625 -8.75 L 4.3125 -8.75 L 4.3125 -2.875 L 9.765625 -2.875 L 9.765625 0 L 1.140625 0 L 1.140625 -20.09375 L 9.765625 -20.09375 L 9.765625 -17.21875 L 4.3125 -17.21875 Z M 4.3125 -11.625 "/></g></g></g><g fill="#ffffff" fill-opacity="1"><g transform="translate(67.458922, 156.496912)"><g><path d="M 4.046875 -4.625 C 4.046875 -3.894531 4.191406 -3.378906 4.484375 -3.078125 C 4.785156 -2.785156 5.1875 -2.640625 5.6875 -2.640625 C 6.175781 -2.640625 6.566406 -2.785156 6.859375 -3.078125 C 7.160156 -3.378906 7.3125 -3.894531 7.3125 -4.625 L 7.3125 -15.46875 C 7.3125 -16.195312 7.160156 -16.707031 6.859375 -17 C 6.566406 -17.300781 6.175781 -17.453125 5.6875 -17.453125 C 5.1875 -17.453125 4.785156 -17.300781 4.484375 -17 C 4.191406 -16.707031 4.046875 -16.195312 4.046875 -15.46875 Z M 0.890625 -15.265625 C 0.890625 -16.890625 1.300781 -18.140625 2.125 -19.015625 C 2.945312 -19.890625 4.132812 -20.328125 5.6875 -20.328125 C 7.238281 -20.328125 8.425781 -19.890625 9.25 -19.015625 C 10.070312 -18.140625 10.484375 -16.890625 10.484375 -15.265625 L 10.484375 -4.828125 C 10.484375 -3.191406 10.070312 -1.9375 9.25 -1.0625 C 8.425781 -0.195312 7.238281 0.234375 5.6875 0.234375 C 4.132812 0.234375 2.945312 -0.195312 2.125 -1.0625 C 1.300781 -1.9375 0.890625 -3.191406 0.890625 -4.828125 Z M 0.890625 -15.265625 "/></g></g></g><g fill="#ffffff" fill-opacity="1"><g transform="translate(78.82442, 156.496912)"><g/></g></g><g fill="#ffffff" fill-opacity="1"><g transform="translate(83.273033, 156.496912)"><g><path d="M 0.28125 -2.875 C 0.457031 -2.851562 0.640625 -2.84375 0.828125 -2.84375 C 1.023438 -2.84375 1.207031 -2.84375 1.375 -2.84375 C 1.875 -2.84375 2.300781 -2.96875 2.65625 -3.21875 C 3.007812 -3.46875 3.1875 -3.984375 3.1875 -4.765625 L 3.1875 -20.09375 L 6.34375 -20.09375 L 6.34375 -5 C 6.34375 -3.976562 6.21875 -3.140625 5.96875 -2.484375 C 5.71875 -1.835938 5.378906 -1.328125 4.953125 -0.953125 C 4.535156 -0.585938 4.054688 -0.328125 3.515625 -0.171875 C 2.972656 -0.015625 2.40625 0.0625 1.8125 0.0625 C 1.519531 0.0625 1.257812 0.0625 1.03125 0.0625 C 0.800781 0.0625 0.550781 0.0390625 0.28125 0 Z M 0.28125 -2.875 "/></g></g></g><g fill="#ffffff" fill-opacity="1"><g transform="translate(90.620422, 156.496912)"><g><path d="M 4.3125 -11.625 L 8.640625 -11.625 L 8.640625 -8.75 L 4.3125 -8.75 L 4.3125 -2.875 L 9.765625 -2.875 L 9.765625 0 L 1.140625 0 L 1.140625 -20.09375 L 9.765625 -20.09375 L 9.765625 -17.21875 L 4.3125 -17.21875 Z M 4.3125 -11.625 "/></g></g></g><g fill="#ffffff" fill-opacity="1"><g transform="translate(101.182301, 156.496912)"><g><path d="M 8.15625 -10.703125 L 7 0 L 2.671875 0 L 0.4375 -20.09375 L 3.5 -20.09375 L 5.1875 -4.25 L 6.71875 -20.09375 L 9.765625 -20.09375 L 11.34375 -4.140625 L 12.96875 -20.09375 L 15.734375 -20.09375 L 13.484375 0 L 9.296875 0 Z M 8.15625 -10.703125 "/></g></g></g><g fill="#ffffff" fill-opacity="1"><g transform="translate(117.340812, 156.496912)"><g><path d="M 4.3125 -11.625 L 8.640625 -11.625 L 8.640625 -8.75 L 4.3125 -8.75 L 4.3125 -2.875 L 9.765625 -2.875 L 9.765625 0 L 1.140625 0 L 1.140625 -20.09375 L 9.765625 -20.09375 L 9.765625 -17.21875 L 4.3125 -17.21875 Z M 4.3125 -11.625 "/></g></g></g><g fill="#ffffff" fill-opacity="1"><g transform="translate(127.90269, 156.496912)"><g><path d="M 1.140625 -20.09375 L 4.3125 -20.09375 L 4.3125 -2.875 L 9.5 -2.875 L 9.5 0 L 1.140625 0 Z M 1.140625 -20.09375 "/></g></g></g><g fill="#ffffff" fill-opacity="1"><g transform="translate(137.689638, 156.496912)"><g><path d="M 7.75 0 C 7.707031 -0.132812 7.664062 -0.257812 7.625 -0.375 C 7.59375 -0.488281 7.5625 -0.628906 7.53125 -0.796875 C 7.5 -0.972656 7.476562 -1.191406 7.46875 -1.453125 C 7.46875 -1.722656 7.46875 -2.0625 7.46875 -2.46875 L 7.46875 -5.625 C 7.46875 -6.5625 7.300781 -7.222656 6.96875 -7.609375 C 6.644531 -7.992188 6.117188 -8.1875 5.390625 -8.1875 L 4.3125 -8.1875 L 4.3125 0 L 1.140625 0 L 1.140625 -20.09375 L 5.90625 -20.09375 C 7.550781 -20.09375 8.742188 -19.707031 9.484375 -18.9375 C 10.222656 -18.175781 10.59375 -17.019531 10.59375 -15.46875 L 10.59375 -13.890625 C 10.59375 -11.828125 9.90625 -10.46875 8.53125 -9.8125 C 9.332031 -9.488281 9.878906 -8.957031 10.171875 -8.21875 C 10.472656 -7.488281 10.625 -6.597656 10.625 -5.546875 L 10.625 -2.4375 C 10.625 -1.9375 10.640625 -1.5 10.671875 -1.125 C 10.710938 -0.757812 10.8125 -0.382812 10.96875 0 Z M 4.3125 -17.21875 L 4.3125 -11.046875 L 5.546875 -11.046875 C 6.128906 -11.046875 6.585938 -11.195312 6.921875 -11.5 C 7.265625 -11.8125 7.4375 -12.367188 7.4375 -13.171875 L 7.4375 -15.15625 C 7.4375 -15.882812 7.304688 -16.410156 7.046875 -16.734375 C 6.785156 -17.054688 6.378906 -17.21875 5.828125 -17.21875 Z M 4.3125 -17.21875 "/></g></g></g><g fill="#ffffff" fill-opacity="1"><g transform="translate(149.22733, 156.496912)"><g><path d="M 4.109375 -6.65625 L 0.109375 -20.09375 L 3.421875 -20.09375 L 5.828125 -10.9375 L 8.234375 -20.09375 L 11.25 -20.09375 L 7.265625 -6.65625 L 7.265625 0 L 4.109375 0 Z M 4.109375 -6.65625 "/></g></g></g><path fill="#ffffff" d="M 73.113281 46.585938 L 63.191406 59.226562 L 74.414062 48.242188 L 101.195312 48.910156 L 91.761719 59.457031 L 103.304688 48.960938 L 105.660156 49.019531 L 117.601562 62.722656 L 88.398438 63.566406 L 76.117188 50.410156 L 86.488281 63.621094 L 64.730469 64.25 L 87.386719 65.589844 L 104.589844 123 L 89.550781 65.71875 L 120.4375 67.546875 L 104.589844 123 L 124.828125 67.804688 L 139.828125 68.695312 L 104.589844 123 L 149.929688 64.25 L 136.0625 46.585938 Z M 107.71875 49.070312 L 131.429688 49.660156 L 123.359375 62.554688 L 122.394531 62.582031 Z M 141.324219 62.035156 L 123.828125 62.542969 L 135 51.9375 L 140.789062 61.183594 Z M 141.324219 62.035156 " fill-opacity="1" fill-rule="evenodd"/><path fill="#ffffff" d="M 58.457031 66.726562 L 59.066406 73.246094 L 59.671875 66.726562 L 66.214844 66.117188 L 59.671875 65.511719 L 59.066406 58.988281 L 58.457031 65.511719 L 51.914062 66.117188 Z M 58.457031 66.726562 " fill-opacity="1" fill-rule="evenodd"/><g clip-path="url(#6d67e213ec)"><path fill="#ffffff" d="M 146.371094 47.34375 L 146.90625 53.113281 L 147.445312 47.34375 L 153.234375 46.808594 L 147.445312 46.273438 L 146.90625 40.5 L 146.371094 46.273438 L 140.582031 46.808594 Z M 146.371094 47.34375 " fill-opacity="1" fill-rule="evenodd"/></g><g clip-path="url(#b66a115484)"><path fill="#ffffff" d="M 56.59375 87.828125 L 66.066406 86.949219 L 56.59375 86.070312 L 55.714844 76.625 L 54.832031 86.070312 L 45.359375 86.949219 L 54.832031 87.828125 L 55.714844 97.273438 Z M 56.59375 87.828125 " fill-opacity="1" fill-rule="evenodd"/></g><path fill="#ffffff" d="M 78.691406 101.777344 L 77.453125 88.488281 L 76.210938 101.777344 L 62.882812 103.011719 L 76.210938 104.246094 L 77.453125 117.535156 L 78.691406 104.246094 L 92.019531 103.011719 Z M 78.691406 101.777344 " fill-opacity="1" fill-rule="evenodd"/></svg>